<svg width="120" height="135" viewBox="0 0 120 135" fill="none" xmlns="http://www.w3.org/2000/svg">
<path d="M3.32031 131.266H116.986" stroke="#1561FF" stroke-width="6" stroke-linecap="round"/>
<path fill-rule="evenodd" clip-rule="evenodd" d="M38 95.3437C36.3431 95.3437 35 94.0006 35 92.3438L35 3.97327C35 2.31641 36.3431 0.973267 38 0.973266L38.0181 0.973266C38.0467 0.972862 38.0753 0.972862 38.104 0.973266L82.2034 0.973265C82.232 0.97286 82.2606 0.97286 82.2892 0.973265L82.3057 0.973265C83.9625 0.973264 85.3057 2.31641 85.3057 3.97326L85.3057 92.3437C85.3057 94.0006 83.9625 95.3437 82.3057 95.3437L82.2463 95.3437L38.061 95.3437L38 95.3437ZM75.0033 6.97326L45.304 6.97327L60.1537 21.8229L75.0033 6.97326ZM64.3963 26.0656L79.3057 11.1562L79.3057 40.975L64.3963 26.0656ZM55.911 26.0656L41 11.1546L41 40.9766L55.911 26.0656ZM42.3035 48.1584L60.1537 30.3082L78.0038 48.1584L60.1537 66.0085L42.3035 48.1584ZM75.0036 89.3437L60.1537 74.4938L45.3037 89.3437L75.0036 89.3437ZM55.911 70.2511L41 85.1621L41 55.3401L55.911 70.2511ZM64.3963 70.2511L79.3057 85.1605L79.3057 55.3418L64.3963 70.2511Z" fill="black"/>
</svg>
