<svg width="121" height="133" viewBox="0 0 121 133" fill="none" xmlns="http://www.w3.org/2000/svg">
<path d="M3.46191 129.328H117.128" stroke="#1561FF" stroke-width="6" stroke-linecap="round"/>
<path fill-rule="evenodd" clip-rule="evenodd" d="M34.4601 6.97266C32.4197 6.97266 30.7656 8.62674 30.7656 10.6671V83.2657C30.7656 85.3061 32.4197 86.9602 34.4601 86.9602H86.1305C88.1709 86.9602 89.825 85.3061 89.825 83.2657V10.6671C89.825 8.62674 88.1709 6.97266 86.1305 6.97266H34.4601ZM24.7656 10.6671C24.7656 5.31303 29.106 0.972656 34.4601 0.972656H86.1305C91.4846 0.972656 95.825 5.31303 95.825 10.6671V83.2657C95.825 88.6198 91.4846 92.9602 86.1305 92.9602H34.4601C29.106 92.9602 24.7656 88.6198 24.7656 83.2657V10.6671ZM60.2951 49.7344C53.2278 49.7344 47.4985 55.4636 47.4985 62.531C47.4985 69.5983 53.2278 75.3276 60.2951 75.3276C67.3625 75.3276 73.0917 69.5983 73.0917 62.531C73.0917 55.4636 67.3625 49.7344 60.2951 49.7344ZM41.4985 62.531C41.4985 52.1499 49.9141 43.7344 60.2951 43.7344C70.6762 43.7344 79.0917 52.1499 79.0917 62.531C79.0917 72.912 70.6762 81.3276 60.2951 81.3276C49.9141 81.3276 41.4985 72.912 41.4985 62.531ZM53.2251 26.0497C53.2251 22.1449 56.3905 18.9795 60.2953 18.9795C64.2001 18.9795 67.3655 22.1449 67.3655 26.0497C67.3655 29.9545 64.2001 33.1199 60.2953 33.1199C56.3905 33.1199 53.2251 29.9545 53.2251 26.0497ZM60.2953 12.9795C53.0768 12.9795 47.2251 18.8312 47.2251 26.0497C47.2251 33.2682 53.0768 39.1199 60.2953 39.1199C67.5138 39.1199 73.3655 33.2682 73.3655 26.0497C73.3655 18.8312 67.5138 12.9795 60.2953 12.9795Z" fill="black"/>
</svg>
