<svg width="121" height="123" viewBox="0 0 121 123" fill="none" xmlns="http://www.w3.org/2000/svg">
<path d="M3.39941 119.328H117.065" stroke="#1561FF" stroke-width="6" stroke-linecap="round"/>
<path fill-rule="evenodd" clip-rule="evenodd" d="M35.3999 8.54256C33.4011 4.79461 36.1141 0.230469 40.3966 0.230469H80.0706C84.4192 0.230469 87.1349 4.93099 84.9812 8.6984L84.9806 8.69949L80.0566 17.3045C82.2181 18.2445 83.9538 19.9801 84.894 22.1416L93.4991 17.2175C93.5507 17.188 93.603 17.1601 93.6559 17.1338C97.4039 15.135 101.968 17.8479 101.968 22.1305V61.8044C101.968 66.1531 97.2676 68.8688 93.5001 66.7151L93.4991 66.7144L84.8944 61.7906C83.9543 63.9526 82.2183 65.6885 80.0564 66.6287L84.9806 75.2339L84.9812 75.235C87.1349 79.0024 84.4192 83.703 80.0706 83.703H40.3966C36.1141 83.703 33.4011 79.1388 35.3999 75.3909C35.4261 75.338 35.4541 75.2856 35.4836 75.2339L40.4078 66.6286C38.2459 65.6884 36.51 63.9525 35.5699 61.7906L26.9651 66.7144L26.964 66.7151C23.1966 68.8688 18.4961 66.1531 18.4961 61.8044V22.1305C18.4961 17.848 23.0603 15.135 26.8082 17.1338C26.8611 17.1601 26.9135 17.188 26.9651 17.2175L35.5703 22.1416C36.5105 19.9802 38.2462 18.2446 40.4077 17.3045L35.4836 8.69949C35.4541 8.64781 35.4261 8.59548 35.3999 8.54256ZM85.6636 55.3179V28.6141L95.9681 22.7176V61.2144L85.6636 55.3179ZM79.6636 25.8562V26.8626L79.6636 26.8743V57.0577L79.6636 57.0694V58.0769C79.6636 59.9111 78.1767 61.398 76.3425 61.398H44.1218C42.2877 61.398 40.8008 59.9111 40.8008 58.0769V25.8562C40.8008 24.022 42.2877 22.5352 44.1218 22.5352H76.3425C78.1767 22.5352 79.6636 24.0221 79.6636 25.8562ZM40.9837 6.23047L46.8802 16.535H73.584L79.4805 6.23047H40.9837ZM52.23 41.967C52.23 37.5475 55.8127 33.9648 60.2321 33.9648C64.6515 33.9648 68.2342 37.5475 68.2342 41.967C68.2342 46.3864 64.6515 49.9691 60.2321 49.9691C55.8127 49.9691 52.23 46.3864 52.23 41.967ZM60.2321 27.9648C52.4989 27.9648 46.23 34.2338 46.23 41.967C46.23 49.7001 52.4989 55.9691 60.2321 55.9691C67.9653 55.9691 74.2342 49.7001 74.2342 41.967C74.2342 34.2338 67.9653 27.9648 60.2321 27.9648ZM79.4805 77.703H40.9837L46.8802 67.3984H73.584L79.4805 77.703ZM24.4961 61.2144V22.7176L34.8006 28.6141V55.3179L24.4961 61.2144Z" fill="black"/>
</svg>
