<svg width="120" height="93" viewBox="0 0 120 93" fill="none" xmlns="http://www.w3.org/2000/svg">
<path d="M3.32031 89.3281H116.986" stroke="#1561FF" stroke-width="6" stroke-linecap="round"/>
<path fill-rule="evenodd" clip-rule="evenodd" d="M17.9475 6.74414C16.2894 6.74414 14.9453 8.08827 14.9453 9.74636V44.6988C14.9453 46.3569 16.2894 47.701 17.9475 47.701H102.359C104.017 47.701 105.361 46.3569 105.361 44.6988V9.74636C105.361 8.08827 104.017 6.74414 102.359 6.74414H17.9475ZM8.94531 9.74636C8.94531 4.77457 12.9757 0.744141 17.9475 0.744141H102.359C107.33 0.744141 111.361 4.77457 111.361 9.74636V44.6988C111.361 49.6706 107.33 53.701 102.359 53.701H17.9475C12.9757 53.701 8.94531 49.6706 8.94531 44.6988V9.74636ZM84.0432 17.2451C78.5313 17.2451 74.063 21.7134 74.063 27.2253C74.063 32.7373 78.5313 37.2056 84.0432 37.2056C89.5551 37.2056 94.0234 32.7373 94.0234 27.2253C94.0234 21.7134 89.5551 17.2451 84.0432 17.2451ZM68.063 27.2253C68.063 18.3997 75.2176 11.2451 84.0432 11.2451C92.8689 11.2451 100.023 18.3997 100.023 27.2253C100.023 36.051 92.8689 43.2056 84.0432 43.2056C75.2176 43.2056 68.063 36.051 68.063 27.2253ZM25.4473 24.2256C23.7904 24.2256 22.4473 25.5687 22.4473 27.2256C22.4473 28.8824 23.7904 30.2256 25.4473 30.2256H57.3844C59.0413 30.2256 60.3844 28.8824 60.3844 27.2256C60.3844 25.5687 59.0413 24.2256 57.3844 24.2256H25.4473Z" fill="black"/>
</svg>
