<svg width="121" height="132" viewBox="0 0 121 132" fill="none" xmlns="http://www.w3.org/2000/svg">
<path d="M3.39941 128.266H117.065" stroke="#1561FF" stroke-width="6" stroke-linecap="round"/>
<path fill-rule="evenodd" clip-rule="evenodd" d="M44.1675 22.4145C44.1675 13.8182 51.1361 6.84961 59.7323 6.84961C68.3286 6.84961 75.2972 13.8182 75.2972 22.4145C75.2972 31.0107 68.3286 37.9793 59.7323 37.9793C51.1361 37.9793 44.1675 31.0107 44.1675 22.4145ZM59.7323 0.849609C47.8224 0.849609 38.1675 10.5045 38.1675 22.4145C38.1675 34.3244 47.8224 43.9793 59.7323 43.9793C71.6423 43.9793 81.2972 34.3244 81.2972 22.4145C81.2972 10.5045 71.6423 0.849609 59.7323 0.849609ZM33.9668 82.0761C33.9668 67.8465 45.5028 56.3105 59.7323 56.3105C73.9619 56.3105 85.4979 67.8465 85.4979 82.0761C85.4979 83.7329 86.841 85.0761 88.4979 85.0761C90.1547 85.0761 91.4979 83.7329 91.4979 82.0761C91.4979 64.5328 77.2756 50.3105 59.7323 50.3105C42.189 50.3105 27.9668 64.5328 27.9668 82.0761C27.9668 83.7329 29.3099 85.0761 30.9668 85.0761C32.6237 85.0761 33.9668 83.7329 33.9668 82.0761Z" fill="black"/>
</svg>
