<svg width="121" height="123" viewBox="0 0 121 123" fill="none" xmlns="http://www.w3.org/2000/svg">
<path d="M3.52539 119.328H117.191" stroke="#1561FF" stroke-width="6" stroke-linecap="round"/>
<path fill-rule="evenodd" clip-rule="evenodd" d="M88.5633 18.4188L25.6788 18.4188V61.0354H88.5633V18.4188ZM94.3185 12.6661C101.343 13.9621 106.67 20.1229 106.67 27.5214V61.2027C110.836 62.0146 113.981 65.6843 113.981 70.0885C113.981 75.0885 109.928 79.1417 104.928 79.1417H9.71427C4.71437 79.1417 0.661133 75.0885 0.661133 70.0885C0.661133 65.8265 3.60634 62.2523 7.57256 61.2902V27.5251C7.57256 20.1238 12.9028 13.961 19.9318 12.6682C21.226 5.64095 27.3879 0.3125 34.788 0.3125H79.4627C86.862 0.3125 93.0235 5.63985 94.3185 12.6661ZM79.4627 6.3125C83.4375 6.3125 86.8212 8.86502 88.0624 12.4188H26.1883C27.4295 8.86502 30.8132 6.3125 34.788 6.3125H79.4627ZM94.5633 18.9217V61.0319H100.67V27.5214C100.67 23.5466 98.117 20.163 94.5633 18.9217ZM10.5428 67.0354L10.5726 67.0355H22.6788L22.7086 67.0354H104.928C106.614 67.0354 107.981 68.4023 107.981 70.0885C107.981 71.7747 106.614 73.1417 104.928 73.1417H9.71427C8.02806 73.1417 6.66113 71.7747 6.66113 70.0885C6.66113 68.4023 8.02808 67.0354 9.71427 67.0354H10.5428ZM19.6788 61.0354V18.9254C16.1251 20.1666 13.5726 23.5503 13.5726 27.5251V61.0354H19.6788Z" fill="black"/>
</svg>
