<svg width="584" height="279" viewBox="0 0 584 279" fill="none" xmlns="http://www.w3.org/2000/svg">
<path fill-rule="evenodd" clip-rule="evenodd" d="M569.027 33.0385C569.027 22.7992 560.724 14.4961 550.485 14.4961H289.685C279.446 14.4961 271.143 22.7992 271.143 33.0385V188.068C271.143 198.307 279.446 206.61 289.685 206.61H389.705C393.571 206.61 396.705 209.744 396.705 213.61C396.705 217.476 393.571 220.61 389.705 220.61H289.685C271.714 220.61 257.143 206.039 257.143 188.068V33.0385C257.143 15.0672 271.714 0.496094 289.685 0.496094H550.485C568.456 0.496094 583.027 15.0672 583.027 33.0385V188.081C583.027 206.052 568.456 220.623 550.485 220.623H540.447C536.581 220.623 533.447 217.489 533.447 213.623C533.447 209.757 536.581 206.623 540.447 206.623H550.485C560.724 206.623 569.027 198.32 569.027 188.081V33.0385ZM205.528 86.6498C205.528 77.1148 196.635 68.1074 184.019 68.1074H139.229C123.589 68.1074 109.72 76.0323 103.094 87.9312L95.53 101.518C88.1493 114.775 74.3649 123.796 58.6964 126.245L58.6932 126.246L47.7224 127.955C27.9474 131.036 14.5149 146.147 14.5149 162.733V188.094C14.5149 197.629 23.408 206.637 36.0234 206.637C39.8895 206.637 43.0234 209.771 43.0234 213.637C43.0234 217.503 39.8895 220.637 36.0234 220.637C17.1642 220.637 0.514893 206.77 0.514893 188.094V162.733C0.514893 138.156 20.1111 118.088 45.567 114.122L56.5343 112.413L56.5359 112.413L56.5375 112.413C68.3787 110.561 78.2185 103.832 83.2978 94.7079L90.8621 81.1207L90.8625 81.12C100.22 64.3161 119.068 54.1074 139.229 54.1074H184.019C202.879 54.1074 219.528 67.9742 219.528 86.6498V188.081C219.528 206.755 202.894 220.624 184.019 220.624C180.153 220.624 177.019 217.49 177.019 213.624C177.019 209.758 180.153 206.624 184.019 206.624C196.645 206.624 205.528 197.618 205.528 188.081V86.6498ZM110.785 195.949C129.688 195.949 145.013 211.274 145.013 230.177C145.013 249.081 129.688 264.405 110.785 264.405C91.8812 264.405 76.5568 249.081 76.5568 230.177C76.5568 211.274 91.8812 195.949 110.785 195.949ZM159.013 230.177C159.013 203.542 137.42 181.949 110.785 181.949C84.1492 181.949 62.5568 203.542 62.5568 230.177C62.5568 256.813 84.1492 278.405 110.785 278.405C137.42 278.405 159.013 256.813 159.013 230.177ZM500.29 230.177C500.29 211.274 484.966 195.949 466.062 195.949C447.159 195.949 431.834 211.274 431.834 230.177C431.834 249.081 447.159 264.405 466.062 264.405C484.966 264.405 500.29 249.081 500.29 230.177ZM466.062 181.949C492.698 181.949 514.29 203.542 514.29 230.177C514.29 256.813 492.698 278.405 466.062 278.405C439.427 278.405 417.834 256.813 417.834 230.177C417.834 203.542 439.427 181.949 466.062 181.949Z" fill="#1561FF"/>
</svg>
