<svg width="1244" height="637" viewBox="0 0 1244 637" fill="none" xmlns="http://www.w3.org/2000/svg">
<path fill-rule="evenodd" clip-rule="evenodd" d="M1213.89 75.2696C1213.89 49.1699 1194.9 30.4128 1174.31 30.4128H617.624C597.037 30.4128 578.045 49.1699 578.045 75.2696V438.215C578.045 464.315 597.037 483.072 617.624 483.072H831.12C839.372 483.072 846.061 489.762 846.061 498.014C846.061 506.266 839.372 512.956 831.12 512.956H617.624C577.994 512.956 548.161 478.161 548.161 438.215V75.2696C548.161 35.3241 577.994 0.529297 617.624 0.529297H1174.31C1213.94 0.529297 1243.77 35.3241 1243.77 75.2696V438.246C1243.77 478.191 1213.94 512.986 1174.31 512.986H1152.88C1144.63 512.986 1137.94 506.296 1137.94 498.044C1137.94 489.792 1144.63 483.102 1152.88 483.102H1174.31C1194.9 483.102 1213.89 464.345 1213.89 438.246V75.2696ZM437.986 227.016C437.986 206.663 419.003 187.436 392.075 187.436H296.469C263.086 187.436 233.481 204.351 219.337 229.749L219.337 229.751L203.191 258.752C187.437 287.05 158.014 306.306 124.569 311.533L124.562 311.534L101.144 315.184C58.9337 321.76 30.2616 354.014 30.2616 389.418V443.552C30.2616 463.905 49.2443 483.132 76.1724 483.132C84.4246 483.132 91.1141 489.822 91.1141 498.074C91.1141 506.326 84.4246 513.015 76.1724 513.015C35.9166 513.015 0.378052 483.416 0.378052 443.552V389.418C0.378052 336.958 42.207 294.122 96.5435 285.657L119.954 282.008C145.232 278.057 166.238 263.692 177.081 244.216L193.227 215.213L193.228 215.212C213.202 179.344 253.435 157.553 296.469 157.553H392.075C432.331 157.553 467.869 187.152 467.869 227.016V443.525C467.869 483.384 432.363 512.988 392.075 512.988C383.823 512.988 377.133 506.298 377.133 498.046C377.133 489.794 383.823 483.104 392.075 483.104C419.026 483.104 437.986 463.882 437.986 443.525V227.016ZM235.753 460.319C276.104 460.319 308.814 493.03 308.814 533.38C308.814 573.731 276.104 606.441 235.753 606.441C195.403 606.441 162.692 573.731 162.692 533.38C162.692 493.03 195.403 460.319 235.753 460.319ZM338.697 533.38C338.697 476.526 292.608 430.436 235.753 430.436C178.899 430.436 132.809 476.526 132.809 533.38C132.809 590.235 178.899 636.325 235.753 636.325C292.608 636.325 338.697 590.235 338.697 533.38ZM1067.17 533.38C1067.17 493.03 1034.46 460.319 994.106 460.319C953.755 460.319 921.045 493.03 921.045 533.38C921.045 573.731 953.755 606.441 994.106 606.441C1034.46 606.441 1067.17 573.731 1067.17 533.38ZM994.106 430.436C1050.96 430.436 1097.05 476.526 1097.05 533.38C1097.05 590.235 1050.96 636.325 994.106 636.325C937.251 636.325 891.161 590.235 891.161 533.38C891.161 476.526 937.251 430.436 994.106 430.436Z" fill="#1561FF"/>
<g opacity="0.15">
<path d="M681.907 229.373L665.854 256.248H679.178H679.556H692.88L681.907 229.373ZM628.059 280.349L674.272 204.723H684.055H684.433H694.215L726.147 280.349H702.604L697.757 268.357H678.453H678.075H658.771L651.659 280.349H628.059Z" fill="black"/>
<path d="M785.01 228.078C784.632 231.864 782.949 234.609 779.901 236.314C778.391 237.181 776.534 237.846 774.385 238.337C772.208 238.828 769.741 239.002 766.954 238.886L758.071 238.568L760.103 217.357L769.77 217.155C772.383 217.01 774.676 217.183 776.65 217.704C778.624 218.195 780.278 218.917 781.614 219.842C784.226 221.605 785.359 224.35 785.01 228.078ZM807.914 227.645C808.697 219.351 805.969 213.456 799.669 209.959C792.819 206.173 787.507 204.699 779.001 204.699H737.519L730.262 280.327H754.065L756.881 250.965L771.831 251.168C777.346 251.312 782.282 250.879 786.577 249.838C790.874 248.798 794.561 247.353 797.608 245.504C803.705 241.689 807.13 235.707 807.914 227.645Z" fill="black"/>
<path d="M885.707 263.442C883.617 263.991 880.975 264.54 878.624 265.118C872.818 266.534 866.983 267.256 861.09 267.256C852.12 267.256 845.125 265.089 840.073 260.725C835.022 256.448 832.846 250.611 833.542 243.271C834.326 234.977 837.577 228.59 843.267 224.082C849.043 219.516 856.504 217.233 865.648 217.233C868.232 217.233 870.844 217.407 873.428 217.782C876.04 218.129 878.624 218.649 881.236 219.285C882.514 219.632 883.53 219.921 884.285 220.094C885.068 220.268 885.707 220.441 886.23 220.643C886.752 220.817 887.274 221.019 887.768 221.221C888.232 221.423 888.842 221.655 889.568 221.915L889.8 220.412L891.135 206.541C890.061 206.367 888.639 206.195 887.797 205.992C885.562 205.501 883.094 205.038 880.395 204.605C877.695 204.258 874.792 203.969 871.715 203.738C868.638 203.536 865.329 203.42 861.845 203.42C846.402 203.42 834.152 206.888 825.153 213.823C816.067 220.817 810.9 230.874 809.651 243.935C808.49 256.015 811.973 265.32 820.102 271.909C828.23 278.469 839.986 281.763 855.343 281.763C862.106 281.763 868.464 281.33 874.444 280.463C877.434 280.029 880.278 279.509 883.007 278.845C883.385 278.758 883.762 278.671 884.139 278.585L884.487 275.897L885.707 263.442Z" fill="black"/>
<path d="M920.96 280.349L927.027 216.889H955.911L949.815 280.349H974.228L981.485 204.723C955.591 204.723 929.697 204.723 903.804 204.723L896.547 280.349H920.96Z" fill="black"/>
<path d="M1042.95 228.078C1042.57 231.864 1040.89 234.609 1037.84 236.314C1036.33 237.181 1034.47 237.846 1032.33 238.337C1030.15 238.828 1027.68 239.002 1024.9 238.886L1016.01 238.568L1018.04 217.357L1027.71 217.155C1030.32 217.01 1032.62 217.183 1034.59 217.704C1036.57 218.195 1038.22 218.917 1039.55 219.842C1042.17 221.605 1043.3 224.35 1042.95 228.078ZM1065.86 227.645C1066.64 219.351 1063.91 213.456 1057.61 209.959C1050.76 206.173 1044.32 204.699 1035.84 204.699H995.46L988.203 280.327H1012.01L1014.82 250.965L1029.77 251.168C1035.29 251.312 1040.22 250.879 1044.52 249.838C1048.82 248.798 1052.5 247.353 1055.55 245.504C1061.65 241.689 1065.1 235.707 1065.86 227.645Z" fill="black"/>
<path d="M1138.87 241.687C1137.44 256.975 1126.15 265.124 1113.35 265.124C1100.63 265.124 1090.56 257.148 1091.98 241.687C1093.41 226.313 1104.58 218.8 1117.47 218.8C1130.1 218.8 1140.32 226.342 1138.87 241.687ZM1152.51 212.327C1145.34 205.824 1134.22 202.588 1119.13 202.588C1104.03 202.588 1092.3 205.824 1083.91 212.327C1067.51 224.811 1062.98 257.264 1078.43 271.135C1085.71 277.637 1096.86 280.874 1111.81 280.874C1126.76 280.874 1138.52 277.637 1147.02 271.135C1163.28 258.621 1168.04 226.14 1152.51 212.327Z" fill="black"/>
</g>
<g opacity="0.2">
<path d="M321.032 368.776C320.218 369.261 319.259 369.163 318.384 369.435C313.021 371.11 309.458 374.574 307.797 379.914C307.161 381.958 308.178 383.295 310.358 383.325C312.809 383.359 315.26 383.365 317.711 383.319C318.593 383.304 318.949 383.499 318.971 384.479C319.047 388.324 319.087 388.324 315.223 388.324C313.589 388.324 311.955 388.296 310.321 388.33C308.162 388.376 307.21 389.706 307.809 391.778C309.56 397.854 314.827 402.102 321.44 402.77C327.328 403.365 333.52 399.959 336.291 394.473C336.825 393.414 337.39 393.032 338.591 393.045C345.075 393.112 351.559 393.112 358.043 393.045C359.24 393.032 359.809 393.408 360.343 394.47C363.12 399.969 369.284 403.362 375.19 402.77C381.733 402.114 386.988 397.921 388.782 391.928C389.457 389.667 388.511 388.351 386.159 388.327C383.708 388.303 381.257 388.29 378.806 388.336C377.946 388.351 377.691 388.08 377.663 387.216C377.543 383.328 377.516 383.328 381.364 383.328C382.998 383.328 384.632 383.353 386.266 383.322C388.447 383.283 389.476 381.952 388.828 379.914C386.939 373.972 382.869 370.402 376.748 369.114C376.351 369.032 375.928 369.059 375.596 368.77C374.573 368.776 373.55 368.776 372.531 368.776C372.245 368.876 371.969 369.02 371.674 369.069C366.415 369.935 362.594 372.761 360.196 377.457C359.766 378.3 359.299 378.611 358.344 378.605C351.657 378.562 344.97 378.562 338.287 378.605C337.332 378.611 336.862 378.306 336.438 377.457C334.273 373.103 330.731 370.427 326.013 369.233C325.378 369.072 324.674 369.188 324.097 368.779H321.032V368.776ZM382.854 378.58C380.44 378.58 378.118 378.562 375.792 378.586C373.799 378.608 372.915 379.496 372.902 381.495C372.881 384.284 372.89 387.076 372.899 389.865C372.905 392.257 373.716 393.072 376.103 393.081C378.323 393.09 380.544 393.081 382.823 393.081C382.691 393.933 382.203 394.326 381.797 394.75C376.232 400.579 366.593 398.47 363.894 390.838C363.117 388.638 362.68 388.327 360.34 388.327C352.271 388.327 344.203 388.324 336.137 388.327C334.024 388.327 333.471 388.727 332.783 390.701C331.395 394.696 328.575 397.076 324.45 397.927C320.38 398.766 315.494 396.587 313.786 393.081C316.148 393.081 318.421 393.093 320.697 393.078C322.881 393.063 323.725 392.212 323.738 390.008C323.75 387.268 323.747 384.528 323.738 381.791C323.731 379.401 322.921 378.592 320.528 378.583C318.307 378.574 316.09 378.583 313.82 378.583C313.921 377.775 314.376 377.415 314.738 377.021C320.23 371.058 330.037 373.136 332.746 380.826C333.52 383.023 333.959 383.338 336.3 383.338C344.368 383.338 352.437 383.341 360.503 383.338C362.616 383.338 363.169 382.941 363.857 380.964C365.245 376.969 368.065 374.589 372.19 373.737C376.259 372.898 381.161 375.083 382.857 378.586L382.854 378.58Z" fill="black"/>
<g clip-path="url(#clip0_153_3410)">
<path d="M396.345 303.087C395.869 302.483 396.01 301.723 395.85 301.04C394.76 296.441 391.922 293.219 387.87 290.942C383.183 288.309 377.962 287.299 372.808 286.084C371.024 285.663 369.248 285.211 367.528 284.565C366.499 284.177 365.879 283.487 365.584 282.401C364.822 279.587 364.675 276.701 364.448 273.823C364.398 273.207 364.675 272.77 365.034 272.319C368.155 268.394 369.171 263.799 369.291 258.938C369.328 257.381 368.311 256.286 366.963 256.258C365.624 256.231 364.558 257.293 364.54 258.852C364.512 261.312 364.165 263.704 363.271 265.999C361.413 270.775 357.561 273.295 352.196 273.295C346.824 273.295 342.99 270.775 341.132 265.987C340.3 263.838 339.913 261.599 339.885 259.295C339.864 257.366 338.912 256.219 337.431 256.261C335.948 256.304 335.045 257.491 335.124 259.414C335.321 264.171 336.39 268.651 339.477 272.453C339.864 272.929 339.996 273.411 339.956 273.991C339.768 276.569 339.547 279.142 339.044 281.687C338.712 283.365 337.803 284.357 336.163 284.857C332.554 285.959 328.837 286.633 325.201 287.613C321.549 288.596 317.986 289.816 314.844 292.001C311.523 294.308 309.343 297.387 308.504 301.351C308.225 302.672 308.28 303.905 309.736 304.592C311.189 305.278 312.669 304.54 313.028 302.74C314.036 297.665 317.675 295.245 322.114 293.564C322.252 293.512 322.409 293.506 322.556 293.487C322.602 293.481 322.654 293.509 322.842 293.554C322.842 296.405 322.842 299.288 322.842 302.172C322.842 303.643 322.836 305.117 322.842 306.588C322.854 308.541 323.726 309.688 325.204 309.712C326.687 309.734 327.621 308.574 327.624 306.649C327.633 302.639 327.624 298.629 327.627 294.622C327.627 294.012 327.664 293.402 327.618 292.798C327.569 292.126 327.839 291.842 328.493 291.635C332.655 290.329 332.649 290.311 332.649 294.58C332.649 299.401 332.643 304.223 332.652 309.044C332.658 311.33 333.493 312.163 335.797 312.163C346.728 312.169 357.66 312.169 368.591 312.163C370.962 312.163 371.764 311.336 371.767 308.919C371.773 303.338 371.798 297.753 371.745 292.172C371.733 290.97 372.037 290.71 373.223 291C376.779 291.87 376.789 291.827 376.789 295.526C376.789 312.678 376.773 329.831 376.819 346.984C376.822 348.369 376.604 348.934 375.032 348.87C371.77 348.739 371.767 348.836 371.767 345.593C371.767 338.843 371.767 332.092 371.767 325.342C371.767 322.834 370.981 322.032 368.508 322.028C359.263 322.022 350.018 322.028 340.773 322.028C340.619 322.028 340.466 322.025 340.312 322.028C338.647 322.089 337.526 323.09 337.572 324.473C337.615 325.809 338.687 326.761 340.294 326.774C343.817 326.801 347.343 326.783 350.869 326.783C355.774 326.783 360.676 326.807 365.581 326.764C366.573 326.755 367.021 326.92 367.009 328.064C366.957 334.561 366.954 341.055 367.009 347.552C367.018 348.702 366.561 348.852 365.575 348.845C358.219 348.812 350.863 348.827 343.509 348.83C343 348.83 342.471 348.784 341.983 348.9C340.819 349.178 340.073 349.938 340.045 351.143C340.017 352.422 340.779 353.218 342.008 353.517C342.444 353.624 342.923 353.582 343.38 353.582C354.975 353.582 366.57 353.585 378.165 353.582C380.84 353.582 381.574 352.834 381.574 350.112C381.574 343.615 381.605 337.118 381.546 330.625C381.537 329.471 381.869 329.123 383.005 329.197C384.48 329.291 385.972 329.3 387.447 329.197C388.697 329.108 389.093 329.462 389.081 330.765C389.01 337.21 389.047 343.655 389.05 350.1C389.05 350.606 389.007 351.131 389.121 351.616C389.394 352.773 390.162 353.517 391.372 353.548C392.659 353.582 393.47 352.825 393.765 351.604C393.881 351.122 393.832 350.594 393.832 350.087C393.835 343.643 393.841 337.198 393.826 330.753C393.826 329.911 393.765 329.151 394.886 328.931C395.654 328.778 395.859 327.952 396.348 327.454V303.091L396.345 303.087ZM352.242 307.408C347.748 307.408 343.258 307.375 338.764 307.433C337.671 307.448 337.4 307.106 337.41 306.057C337.459 300.884 337.431 295.712 337.434 290.536C337.434 289.996 337.302 289.417 338.052 289.166C338.905 288.879 338.97 289.609 339.225 290.027C345.362 300.069 359.03 300.036 365.222 289.963C365.461 289.572 365.529 288.934 366.284 289.145C367.015 289.349 366.978 289.896 366.978 290.466C366.972 295.691 366.942 300.915 367.003 306.139C367.015 307.296 366.545 307.436 365.566 307.427C361.124 307.384 356.683 307.408 352.242 307.408ZM381.571 309.032V296.862C381.571 294.248 382.743 293.56 385.088 294.796C388.921 296.813 391.415 299.773 391.467 304.25C391.544 310.588 391.476 316.926 391.513 323.264C391.519 324.177 391.283 324.506 390.318 324.485C387.818 324.421 385.315 324.418 382.818 324.485C381.783 324.512 381.543 324.14 381.552 323.179C381.595 318.464 381.571 313.747 381.571 309.032ZM352.177 292.831C348.012 292.627 344.925 290.735 343.003 287.021C342.748 286.53 342.481 286.011 342.745 285.428C343.869 282.935 344.13 280.25 344.431 277.586C344.538 276.627 344.812 276.542 345.641 276.847C350.024 278.455 354.422 278.458 358.802 276.832C359.496 276.573 359.859 276.478 359.969 277.451C360.277 280.164 360.531 282.901 361.674 285.443C361.935 286.026 361.656 286.545 361.401 287.036C359.472 290.744 356.382 292.636 352.177 292.831Z" fill="black"/>
<path d="M288.51 353.581C297.04 353.581 305.572 353.581 314.102 353.581C317.149 353.581 317.818 352.931 317.818 349.958C317.818 339.757 317.818 329.559 317.818 319.357C317.818 317.594 317.827 317.581 319.443 318.268C323.516 320.001 326.83 322.439 327.588 327.16C327.724 328.005 327.736 328.878 327.739 329.736C327.751 336.535 327.745 343.336 327.748 350.135C327.748 350.59 327.708 351.06 327.797 351.502C328.049 352.738 328.829 353.523 330.11 353.541C331.394 353.559 332.183 352.784 332.475 351.56C332.567 351.173 332.534 350.752 332.534 350.349C332.534 343.498 332.512 336.647 332.543 329.797C332.573 323.056 329.56 318.164 323.596 315.015C319.034 312.607 314.025 311.616 309.071 310.45C307.332 310.041 305.606 309.617 303.929 308.988C302.783 308.558 302.108 307.829 301.794 306.626C301.079 303.855 300.922 301.024 300.698 298.195C300.649 297.581 300.919 297.142 301.278 296.69C304.399 292.769 305.419 288.174 305.542 283.312C305.582 281.75 304.574 280.658 303.223 280.621C301.884 280.584 300.809 281.649 300.79 283.203C300.762 285.662 300.415 288.055 299.525 290.349C297.669 295.125 293.818 297.655 288.455 297.655C283.08 297.655 279.244 295.14 277.386 290.355C276.55 288.207 276.163 285.97 276.136 283.663C276.111 281.729 275.171 280.584 273.694 280.618C272.207 280.651 271.295 281.842 271.375 283.758C271.568 288.512 272.634 292.998 275.721 296.797C276.151 297.325 276.246 297.865 276.197 298.488C276 301.014 275.788 303.535 275.294 306.031C274.962 307.707 274.062 308.701 272.422 309.214C268.816 310.34 265.094 310.981 261.454 311.967C258.051 312.888 254.734 314.02 251.736 315.934C247.15 318.857 244.561 323.016 244.447 328.42C244.288 335.927 244.374 343.44 244.389 350.95C244.392 352.509 245.452 353.577 246.794 353.562C248.188 353.544 249.15 352.445 249.153 350.749C249.168 343.797 249.266 336.843 249.131 329.891C248.993 322.876 253.262 319.931 258.164 317.969C259.006 317.63 259.11 318.021 259.095 318.713C259.071 319.778 259.089 320.843 259.089 321.912C259.089 331.35 259.089 340.791 259.089 350.23C259.089 352.818 259.857 353.577 262.464 353.581C271.147 353.584 279.83 353.581 288.513 353.581H288.51ZM288.4 334.206C280.743 334.206 273.083 334.173 265.425 334.237C264.123 334.249 263.822 333.861 263.841 332.622C263.911 327.603 263.911 322.58 263.841 317.557C263.825 316.437 264.255 316.074 265.244 315.857C268.475 315.149 271.749 314.56 274.827 313.303C275.699 312.946 276.194 313.089 276.814 313.718C279.892 316.828 283.009 319.904 286.118 322.983C287.945 324.792 288.947 324.801 290.746 323.016C293.858 319.937 296.954 316.846 300.065 313.767C300.48 313.358 300.815 312.781 301.598 313.117C304.851 314.515 308.327 315.116 311.752 315.879C312.824 316.12 313.064 316.629 313.054 317.652C313.002 322.674 312.99 327.694 313.057 332.717C313.073 333.922 312.732 334.24 311.528 334.231C303.819 334.179 296.109 334.203 288.4 334.203V334.206ZM288.292 338.964C296.057 338.964 303.819 338.985 311.583 338.939C312.692 338.933 313.107 339.171 313.057 340.355C312.962 342.735 312.996 345.125 313.045 347.508C313.064 348.423 312.901 348.851 311.817 348.848C296.238 348.814 280.663 348.814 265.084 348.848C264.003 348.848 263.831 348.433 263.853 347.511C263.902 345.128 263.936 342.738 263.841 340.358C263.794 339.183 264.197 338.933 265.312 338.939C272.972 338.985 280.635 338.964 288.295 338.964H288.292ZM288.308 318.381C288.179 318.28 287.967 318.146 287.792 317.972C285.083 315.287 282.38 312.595 279.674 309.907C279.37 309.605 279.21 309.321 279.379 308.839C280.162 306.574 280.454 304.203 280.687 301.838C280.783 300.871 281.139 300.941 281.842 301.198C286.222 302.797 290.617 302.83 294.994 301.204C295.79 300.908 296.128 300.902 296.226 301.909C296.453 304.225 296.736 306.544 297.501 308.762C297.688 309.303 297.522 309.611 297.175 309.959C294.5 312.607 291.837 315.265 289.162 317.911C288.953 318.115 288.778 318.402 288.314 318.381H288.308Z" fill="black"/>
<path d="M352.291 251.257C359.435 251.257 366.582 251.266 373.727 251.251C375.637 251.248 376.896 250.051 376.623 248.544C376.5 247.876 376.202 247.119 375.56 246.966C373.917 246.576 374.049 245.331 373.954 244.153C373.668 240.589 372.934 237.137 371.214 233.958C369.27 230.369 366.392 227.983 362.264 227.275C361.671 227.174 361.247 226.915 360.879 226.439C359.871 225.148 358.483 224.586 356.867 224.577C353.753 224.562 350.642 224.559 347.527 224.577C345.915 224.586 344.523 225.157 343.525 226.454C343.153 226.936 342.717 227.171 342.131 227.272C338.006 227.989 335.131 230.381 333.19 233.97C331.494 237.104 330.766 240.506 330.468 244.015C330.364 245.239 330.514 246.475 328.847 246.991C327.953 247.265 327.593 248.312 327.818 249.307C328.063 250.408 328.816 251.077 329.94 251.211C330.696 251.303 331.47 251.248 332.234 251.248C338.921 251.248 345.607 251.248 352.294 251.248L352.291 251.257ZM352.288 246.499C346.977 246.499 341.667 246.496 336.356 246.502C335.604 246.502 334.906 246.576 335.035 245.441C335.364 242.615 335.708 239.798 336.881 237.168C337.748 235.227 338.945 233.549 340.917 232.557C342.306 231.858 342.438 231.94 342.453 233.442C342.462 234.354 342.441 235.27 342.459 236.182C342.49 237.961 343.473 239.102 344.913 239.06C346.305 239.017 347.217 237.918 347.238 236.21C347.26 234.281 347.284 232.352 347.229 230.427C347.205 229.545 347.527 229.301 348.375 229.316C350.927 229.359 353.483 229.377 356.032 229.31C357.046 229.283 357.205 229.716 357.184 230.57C357.138 232.548 357.138 234.528 357.184 236.506C357.221 237.995 358.194 239.014 359.49 239.06C360.83 239.106 361.88 238.034 361.944 236.493C361.987 235.428 362.021 234.357 361.938 233.298C361.834 231.944 362.436 232.023 363.351 232.478C365.173 233.378 366.383 234.839 367.261 236.609C368.643 239.389 369.024 242.404 369.371 245.431C369.5 246.557 368.821 246.506 368.06 246.506C362.801 246.496 357.54 246.499 352.282 246.499H352.288Z" fill="black"/>
<path d="M288.543 275.617C295.687 275.617 302.835 275.626 309.979 275.611C311.883 275.607 313.145 274.402 312.863 272.895C312.737 272.226 312.436 271.473 311.794 271.323C310.135 270.939 310.292 269.678 310.197 268.507C309.908 264.942 309.174 261.491 307.451 258.314C305.504 254.729 302.623 252.342 298.495 251.638C297.902 251.537 297.484 251.265 297.112 250.795C296.059 249.459 294.615 248.934 292.944 248.937C289.934 248.937 286.921 248.934 283.911 248.937C282.24 248.937 280.797 249.48 279.759 250.829C279.387 251.311 278.945 251.54 278.361 251.641C274.236 252.361 271.361 254.756 269.426 258.348C267.688 261.576 266.957 265.08 266.687 268.699C266.607 269.779 266.674 270.829 265.203 271.28C264.239 271.576 263.824 272.626 264.061 273.685C264.306 274.787 265.065 275.467 266.189 275.577C267.15 275.672 268.127 275.617 269.095 275.617C275.575 275.617 282.059 275.617 288.54 275.617H288.543ZM288.528 270.862C283.217 270.862 277.907 270.859 272.596 270.865C271.844 270.865 271.146 270.936 271.278 269.8C271.629 266.773 272.006 263.758 273.389 260.978C274.267 259.208 275.474 257.741 277.295 256.843C278.202 256.398 278.825 256.288 278.711 257.655C278.632 258.613 278.684 259.581 278.699 260.545C278.73 262.324 279.716 263.465 281.156 263.42C282.548 263.374 283.46 262.278 283.478 260.566C283.5 258.69 283.515 256.813 283.469 254.936C283.448 254.088 283.595 253.642 284.615 253.67C287.167 253.737 289.723 253.737 292.272 253.67C293.288 253.642 293.442 254.079 293.421 254.933C293.374 256.911 293.374 258.891 293.421 260.868C293.457 262.355 294.434 263.377 295.73 263.42C297.069 263.465 298.12 262.391 298.181 260.853C298.224 259.788 298.258 258.717 298.175 257.658C298.071 256.3 298.679 256.389 299.591 256.84C301.412 257.741 302.623 259.205 303.501 260.975C304.88 263.755 305.261 266.77 305.611 269.797C305.74 270.926 305.058 270.868 304.3 270.868C299.041 270.859 293.78 270.862 288.522 270.862H288.528Z" fill="black"/>
</g>
</g>
<defs>
<clipPath id="clip0_153_3410">
<rect width="152" height="151" fill="white" transform="matrix(-1 0 0 1 396.344 202.588)"/>
</clipPath>
</defs>
</svg>
