<svg width="96" height="69" viewBox="0 0 96 69" fill="none" xmlns="http://www.w3.org/2000/svg">
<g clip-path="url(#clip0_94_1910)">
<g clip-path="url(#clip1_94_1910)">
<path fill-rule="evenodd" clip-rule="evenodd" d="M63.2439 0.571289L74.2138 26.788L52.7217 26.7834L63.2439 0.571289Z" fill="#707070"/>
<path fill-rule="evenodd" clip-rule="evenodd" d="M30.0601 14.3665L53.9005 4.39648L39.7415 37.4175L30.0601 14.3665Z" fill="#707070"/>
<path fill-rule="evenodd" clip-rule="evenodd" d="M77.403 33.6697L44.0181 47.8379L49.848 33.5879L77.403 33.6697Z" fill="#707070"/>
<path d="M8.66865 55.2293L6.14206 59.4593H8.23918H8.29857H10.3957L8.66865 55.2293ZM0.193359 63.2526L7.46703 51.3496H9.00675H9.06615H10.6059L15.6317 63.2526H11.9263L11.1633 61.3651H8.12495H8.06556H5.02724L3.90787 63.2526H0.193359Z" fill="#707070"/>
<path d="M24.8928 55.0233C24.8334 55.6192 24.5684 56.0514 24.0887 56.3197C23.8511 56.4562 23.5587 56.5608 23.2206 56.6381C22.8779 56.7154 22.4896 56.7427 22.051 56.7245L20.6529 56.6744L20.9727 53.336L22.4942 53.3041C22.9054 53.2813 23.2663 53.3087 23.577 53.3906C23.8877 53.4679 24.1481 53.5815 24.3583 53.7271C24.7695 54.0045 24.9477 54.4366 24.8928 55.0233ZM28.4977 54.9552C28.621 53.6498 28.1916 52.722 27.2001 52.1716C26.1219 51.5758 25.2858 51.3438 23.9471 51.3438H17.4181L16.2759 63.2469H20.0224L20.4656 58.6257L22.8186 58.6576C23.6866 58.6803 24.4634 58.6121 25.1395 58.4482C25.8157 58.2845 26.396 58.0572 26.8757 57.7661C27.8352 57.1657 28.3743 56.2242 28.4977 54.9552Z" fill="#707070"/>
<path d="M40.7421 60.5914C40.4132 60.6779 39.9974 60.7643 39.6273 60.8553C38.7135 61.0781 37.7952 61.1918 36.8677 61.1918C35.4559 61.1918 34.3548 60.8507 33.5598 60.1639C32.7648 59.4907 32.4222 58.572 32.5318 57.4167C32.6552 56.1113 33.1669 55.1061 34.0624 54.3966C34.9716 53.6779 36.1458 53.3186 37.585 53.3186C37.9917 53.3186 38.4029 53.3459 38.8095 53.405C39.2207 53.4596 39.6273 53.5415 40.0385 53.6416C40.2396 53.6961 40.3995 53.7416 40.5183 53.7689C40.6416 53.7962 40.7421 53.8235 40.8244 53.8553C40.9066 53.8826 40.9888 53.9145 41.0665 53.9463C41.1396 53.9781 41.2356 54.0145 41.3498 54.0555L41.3863 53.8189L41.5965 51.6357C41.4275 51.6084 41.2036 51.5812 41.0711 51.5493C40.7193 51.472 40.3309 51.3992 39.906 51.331C39.4811 51.2764 39.0242 51.2309 38.5399 51.1945C38.0556 51.1627 37.5348 51.1445 36.9865 51.1445C34.5558 51.1445 32.6278 51.6903 31.2114 52.7819C29.7814 53.8826 28.9681 55.4655 28.7716 57.5213C28.5889 59.4225 29.1371 60.8871 30.4164 61.9241C31.6957 62.9566 33.5461 63.4751 35.9631 63.4751C37.0276 63.4751 38.0282 63.4069 38.9694 63.2704C39.44 63.2022 39.8877 63.1203 40.3172 63.0157C40.3766 63.0021 40.436 62.9884 40.4954 62.9748L40.5502 62.5518L40.7421 60.5914Z" fill="#707070"/>
<path d="M46.2931 63.2526L47.248 53.2645H51.7941L50.8346 63.2526H54.677L55.8192 51.3496C51.7438 51.3496 47.6683 51.3496 43.5929 51.3496L42.4507 63.2526H46.2931Z" fill="#707070"/>
<path d="M65.4919 55.0233C65.4325 55.6192 65.1675 56.0514 64.6878 56.3197C64.4502 56.4562 64.1578 56.5608 63.8197 56.6381C63.477 56.7154 63.0887 56.7427 62.6501 56.7245L61.252 56.6744L61.5718 53.336L63.0932 53.3041C63.5044 53.2813 63.8654 53.3087 64.1761 53.3906C64.4868 53.4679 64.7472 53.5815 64.9573 53.7271C65.3685 54.0045 65.5467 54.4366 65.4919 55.0233ZM69.0968 54.9552C69.2201 53.6498 68.7906 52.722 67.7992 52.1716C66.7209 51.5758 65.7066 51.3438 64.3725 51.3438H58.0172L56.875 63.2469H60.6215L61.0647 58.6257L63.4176 58.6576C64.2857 58.6803 65.0624 58.6121 65.7386 58.4482C66.4148 58.2845 66.9951 58.0572 67.4748 57.7661C68.4343 57.1657 68.978 56.2242 69.0968 54.9552Z" fill="#707070"/>
<path d="M80.5876 57.1666C80.3638 59.5727 78.5865 60.8553 76.5716 60.8553C74.5704 60.8553 72.985 59.6 73.2089 57.1666C73.4327 54.7469 75.1918 53.5643 77.2204 53.5643C79.2078 53.5643 80.8161 54.7514 80.5876 57.1666ZM82.735 52.5455C81.6065 51.5221 79.8566 51.0127 77.4808 51.0127C75.105 51.0127 73.2591 51.5221 71.9387 52.5455C69.3573 54.5104 68.6445 59.6182 71.0752 61.8014C72.222 62.8248 73.9764 63.3342 76.3294 63.3342C78.6824 63.3342 80.5328 62.8248 81.8715 61.8014C84.4301 59.8319 85.1794 54.7196 82.735 52.5455Z" fill="#707070"/>
</g>
</g>
<defs>
<clipPath id="clip0_94_1910">
<rect width="96" height="68" fill="white" transform="translate(0 0.21582)"/>
</clipPath>
<clipPath id="clip1_94_1910">
<rect width="96" height="68" fill="white" transform="translate(0 0.21582)"/>
</clipPath>
</defs>
</svg>
