<svg width="50" height="49" viewBox="0 0 50 49" fill="none" xmlns="http://www.w3.org/2000/svg">
<rect x="0.964844" y="0.365234" width="48.2985" height="48.2985" rx="24.1492" fill="white"/>
<path d="M30.2617 37.7892H19.9694C15.4885 37.7892 11.8418 34.1425 11.8418 29.6616V19.3694C11.8384 14.885 15.4851 11.2383 19.966 11.2383H30.2582C34.7391 11.2383 38.3858 14.885 38.3858 19.3659V29.6581C38.3858 34.139 34.7391 37.7858 30.2582 37.7858L30.2617 37.7892ZM19.966 13.2271C16.5812 13.2271 13.8237 15.9811 13.8237 19.3694V29.6616C13.8237 33.0464 16.5777 35.8038 19.966 35.8038H30.2582C33.643 35.8038 36.4005 33.0498 36.4005 29.6616V19.3694C36.4005 15.9846 33.6464 13.2271 30.2582 13.2271H19.966Z" fill="#1561FF"/>
<path d="M25.1119 31.2296C21.41 31.2296 18.3975 28.2171 18.3975 24.5152C18.3975 20.8133 21.41 17.8008 25.1119 17.8008C28.8138 17.8008 31.8263 20.8133 31.8263 24.5152C31.8263 28.2171 28.8138 31.2296 25.1119 31.2296ZM25.1119 19.8344C22.5302 19.8344 20.4311 21.9335 20.4311 24.5152C20.4311 27.0969 22.5302 29.196 25.1119 29.196C27.6936 29.196 29.7927 27.0969 29.7927 24.5152C29.7927 21.9335 27.6936 19.8344 25.1119 19.8344Z" fill="#1561FF"/>
<path d="M34.3086 17.0669C34.3086 18.032 33.5261 18.8144 32.561 18.8144C31.5959 18.8144 30.8135 18.032 30.8135 17.0669C30.8135 16.1018 31.5959 15.3193 32.561 15.3193C33.5261 15.3193 34.3086 16.1018 34.3086 17.0669Z" fill="#1561FF"/>
</svg>
