<svg width="50" height="49" viewBox="0 0 50 49" fill="none" xmlns="http://www.w3.org/2000/svg">
<rect x="0.773438" y="0.199219" width="48.2985" height="48.2985" rx="24.1492" fill="#1561FF"/>
<path d="M30.0722 37.6232H19.78C15.2991 37.6232 11.6523 33.9764 11.6523 29.4956V19.2033C11.6489 14.719 15.2956 11.0723 19.7765 11.0723H30.0688C34.5496 11.0723 38.1964 14.719 38.1964 19.1999V29.4921C38.1964 33.973 34.5496 37.6197 30.0688 37.6197L30.0722 37.6232ZM19.7765 13.0611C16.3917 13.0611 13.6343 15.8151 13.6343 19.2033V29.4956C13.6343 32.8804 16.3883 35.6378 19.7765 35.6378H30.0688C33.4535 35.6378 36.211 32.8838 36.211 29.4956V19.2033C36.211 15.8185 33.457 13.0611 30.0688 13.0611H19.7765Z" fill="white"/>
<path d="M24.9215 31.0636C21.2196 31.0636 18.207 28.0511 18.207 24.3492C18.207 20.6473 21.2196 17.6348 24.9215 17.6348C28.6233 17.6348 31.6359 20.6473 31.6359 24.3492C31.6359 28.0511 28.6233 31.0636 24.9215 31.0636ZM24.9215 19.6684C22.3398 19.6684 20.2407 21.7675 20.2407 24.3492C20.2407 26.9309 22.3398 29.03 24.9215 29.03C27.5031 29.03 29.6022 26.9309 29.6022 24.3492C29.6022 21.7675 27.5031 19.6684 24.9215 19.6684Z" fill="white"/>
<path d="M34.1201 16.8999C34.1201 17.865 33.3377 18.6474 32.3725 18.6474C31.4074 18.6474 30.625 17.865 30.625 16.8999C30.625 15.9348 31.4074 15.1523 32.3725 15.1523C33.3377 15.1523 34.1201 15.9348 34.1201 16.8999Z" fill="white"/>
</svg>
