<svg width="96" height="69" viewBox="0 0 96 69" fill="none" xmlns="http://www.w3.org/2000/svg">
<g clip-path="url(#clip0_65_627)">
<path fill-rule="evenodd" clip-rule="evenodd" d="M63.2439 1.16797L74.2138 27.3847L52.7217 27.3801L63.2439 1.16797Z" fill="black"/>
<path fill-rule="evenodd" clip-rule="evenodd" d="M30.0601 14.9622L53.9005 4.99219L39.7415 38.0132L30.0601 14.9622Z" fill="#1561FF"/>
<path fill-rule="evenodd" clip-rule="evenodd" d="M77.403 34.2673L44.0181 48.4355L49.848 34.1855L77.403 34.2673Z" fill="black"/>
<path d="M8.66865 55.825L6.14206 60.055H8.23918H8.29857H10.3957L8.66865 55.825ZM0.193359 63.8483L7.46703 51.9453H9.00675H9.06615H10.6059L15.6317 63.8483H11.9263L11.1633 61.9608H8.12495H8.06556H5.02724L3.90787 63.8483H0.193359Z" fill="#1561FF"/>
<path d="M24.8928 55.621C24.8334 56.2169 24.5684 56.649 24.0887 56.9173C23.8511 57.0538 23.5587 57.1584 23.2206 57.2357C22.8779 57.313 22.4896 57.3403 22.051 57.3221L20.6529 57.2721L20.9727 53.9336L22.4942 53.9018C22.9054 53.879 23.2663 53.9063 23.577 53.9882C23.8877 54.0655 24.1481 54.1792 24.3583 54.3248C24.7695 54.6022 24.9477 55.0343 24.8928 55.621ZM28.4977 55.5528C28.621 54.2474 28.1916 53.3196 27.2001 52.7692C26.1219 52.1734 25.2858 51.9414 23.9471 51.9414H17.4181L16.2759 63.8445H20.0224L20.4656 59.2233L22.8186 59.2552C23.6866 59.2779 24.4634 59.2097 25.1395 59.0459C25.8157 58.8822 26.396 58.6548 26.8757 58.3637C27.8352 57.7633 28.3743 56.8218 28.4977 55.5528Z" fill="#1561FF"/>
<path d="M40.7421 61.1871C40.4132 61.2736 39.9974 61.36 39.6273 61.451C38.7135 61.6738 37.7952 61.7875 36.8677 61.7875C35.4559 61.7875 34.3548 61.4464 33.5598 60.7596C32.7648 60.0864 32.4222 59.1677 32.5318 58.0124C32.6552 56.707 33.1669 55.7018 34.0624 54.9923C34.9716 54.2736 36.1458 53.9143 37.585 53.9143C37.9917 53.9143 38.4029 53.9416 38.8095 54.0007C39.2207 54.0553 39.6273 54.1372 40.0385 54.2373C40.2396 54.2918 40.3995 54.3373 40.5183 54.3646C40.6416 54.3919 40.7421 54.4192 40.8244 54.451C40.9066 54.4783 40.9888 54.5102 41.0665 54.542C41.1396 54.5738 41.2356 54.6102 41.3498 54.6512L41.3863 54.4146L41.5965 52.2314C41.4275 52.2041 41.2036 52.1769 41.0711 52.145C40.7193 52.0677 40.3309 51.9949 39.906 51.9267C39.4811 51.8721 39.0242 51.8266 38.5399 51.7902C38.0556 51.7584 37.5348 51.7402 36.9865 51.7402C34.5558 51.7402 32.6278 52.286 31.2114 53.3776C29.7814 54.4783 28.9681 56.0612 28.7716 58.117C28.5889 60.0182 29.1371 61.4828 30.4164 62.5198C31.6957 63.5523 33.5461 64.0708 35.9631 64.0708C37.0276 64.0708 38.0282 64.0026 38.9694 63.8661C39.44 63.7979 39.8877 63.716 40.3172 63.6114C40.3766 63.5978 40.436 63.5841 40.4954 63.5705L40.5502 63.1475L40.7421 61.1871Z" fill="#1561FF"/>
<path d="M46.2931 63.8483L47.248 53.8602H51.7941L50.8346 63.8483H54.677L55.8192 51.9453C51.7438 51.9453 47.6683 51.9453 43.5929 51.9453L42.4507 63.8483H46.2931Z" fill="black"/>
<path d="M65.4919 55.621C65.4325 56.2169 65.1675 56.649 64.6878 56.9173C64.4502 57.0538 64.1578 57.1584 63.8197 57.2357C63.477 57.313 63.0887 57.3403 62.6501 57.3221L61.252 57.2721L61.5718 53.9336L63.0932 53.9018C63.5044 53.879 63.8654 53.9063 64.1761 53.9882C64.4868 54.0655 64.7472 54.1792 64.9573 54.3248C65.3685 54.6022 65.5467 55.0343 65.4919 55.621ZM69.0968 55.5528C69.2201 54.2474 68.7906 53.3196 67.7992 52.7692C66.7209 52.1734 65.7066 51.9414 64.3725 51.9414H58.0172L56.875 63.8445H60.6215L61.0647 59.2233L63.4176 59.2552C64.2857 59.2779 65.0624 59.2097 65.7386 59.0459C66.4148 58.8822 66.9951 58.6548 67.4748 58.3637C68.4343 57.7633 68.978 56.8218 69.0968 55.5528Z" fill="black"/>
<path d="M80.5876 57.7633C80.3638 60.1694 78.5865 61.452 76.5716 61.452C74.5704 61.452 72.985 60.1967 73.2089 57.7633C73.4327 55.3436 75.1918 54.161 77.2204 54.161C79.2078 54.161 80.8161 55.3481 80.5876 57.7633ZM82.735 53.1422C81.6065 52.1188 79.8566 51.6094 77.4808 51.6094C75.105 51.6094 73.2591 52.1188 71.9387 53.1422C69.3573 55.1071 68.6445 60.2149 71.0752 62.3981C72.222 63.4215 73.9764 63.9309 76.3294 63.9309C78.6824 63.9309 80.5328 63.4215 81.8715 62.3981C84.4301 60.4286 85.1794 55.3163 82.735 53.1422Z" fill="black"/>
</g>
<defs>
<clipPath id="clip0_65_627">
<rect width="96" height="68" fill="white" transform="translate(0 0.8125)"/>
</clipPath>
</defs>
</svg>
