<svg width="621" height="200" viewBox="0 0 621 200" fill="none" xmlns="http://www.w3.org/2000/svg">
<path fill-rule="evenodd" clip-rule="evenodd" d="M95.4648 24C95.4648 15.5992 95.4648 11.3988 93.8299 8.19014C92.3918 5.36771 90.0971 3.073 87.2747 1.6349C84.066 0 79.8656 0 71.4648 0H20.4648C9.41915 0 0.464844 8.95431 0.464844 20V130C0.464844 141.046 9.41915 150 20.4648 150H80.4648C91.5105 150 100.465 158.954 100.465 170V180C100.465 191.046 109.419 200 120.465 200H180.465C191.511 200 200.465 191.046 200.465 180V20C200.465 8.95431 191.511 0 180.465 0H129.465C121.064 0 116.864 0 113.655 1.6349C110.833 3.073 108.538 5.36771 107.1 8.19014C105.465 11.3988 105.465 15.5992 105.465 24V95C105.465 97.7614 103.226 100 100.465 100C97.7034 100 95.4648 97.7614 95.4648 95V24Z" fill="#1561FF"/>
<path fill-rule="evenodd" clip-rule="evenodd" d="M515.465 24C515.465 15.5992 515.465 11.3988 513.83 8.19014C512.392 5.36771 510.097 3.073 507.275 1.6349C504.066 0 499.866 0 491.465 0H440.465C429.419 0 420.465 8.95431 420.465 20V130C420.465 141.046 429.419 150 440.465 150H500.465C511.511 150 520.465 158.954 520.465 170V180C520.465 191.046 529.419 200 540.465 200H600.465C611.511 200 620.465 191.046 620.465 180V20C620.465 8.95431 611.511 0 600.465 0H549.465C541.064 0 536.864 0 533.655 1.6349C530.833 3.073 528.538 5.36771 527.1 8.19014C525.465 11.3988 525.465 15.5992 525.465 24V95C525.465 97.7614 523.226 100 520.465 100C517.703 100 515.465 97.7614 515.465 95V24Z" fill="#1561FF"/>
<path fill-rule="evenodd" clip-rule="evenodd" d="M230.465 0C219.419 0 210.465 8.95431 210.465 20V180C210.465 191.046 219.419 200 230.465 200H390.465C401.511 200 410.465 191.046 410.465 180V20C410.465 8.95431 401.511 0 390.465 0H230.465ZM310.465 50C307.703 50 305.465 52.2386 305.465 55V145C305.465 147.761 307.703 150 310.465 150C313.226 150 315.465 147.761 315.465 145V55C315.465 52.2386 313.226 50 310.465 50Z" fill="#1561FF"/>
</svg>
