<svg width="49" height="49" viewBox="0 0 49 49" fill="none" xmlns="http://www.w3.org/2000/svg">
<rect x="0.642578" y="0.365234" width="48.2985" height="48.2985" rx="24.1492" fill="white"/>
<path d="M24.8035 25.0115C29.2025 25.0101 32.7658 21.4426 32.7644 17.0449C32.763 12.6458 29.1954 9.08257 24.7978 9.08398C20.4001 9.0854 16.8354 12.6529 16.8369 17.0506C16.8425 21.4468 20.4072 25.0087 24.8035 25.0115ZM24.8035 13.7527C26.6255 13.7527 28.1028 15.2299 28.1028 17.052C28.1028 18.8741 26.6255 20.3499 24.8035 20.3499C22.9814 20.3499 21.5041 18.8727 21.5041 17.0506C21.507 15.2299 22.9828 13.7541 24.8035 13.7527ZM28.0233 31.5094C29.6623 31.1376 31.2261 30.4891 32.6494 29.5936C33.7336 28.894 34.0458 27.4494 33.3462 26.3653C32.6579 25.2981 31.2417 24.976 30.1604 25.6416C26.881 27.6921 22.7174 27.6921 19.438 25.6416C18.3496 24.959 16.9121 25.2854 16.2267 26.3724C15.5384 27.4608 15.862 28.9026 16.9518 29.5908C16.9532 29.5908 16.9546 29.5922 16.9546 29.5922C18.3765 30.4862 19.9403 31.1347 21.5779 31.5079L17.1249 35.961C16.238 36.8975 16.2792 38.3762 17.2172 39.2631C18.1183 40.1145 19.526 40.1145 20.4271 39.2631L24.8006 34.8867L29.177 39.2631C30.088 40.1727 31.5624 40.1727 32.4735 39.2631C33.3831 38.3521 33.3831 36.8777 32.4735 35.9666L28.0233 31.5094Z" fill="#1561FF"/>
</svg>
