<svg width="49" height="49" viewBox="0 0 49 49" fill="none" xmlns="http://www.w3.org/2000/svg">
<rect x="0.453125" y="0.199219" width="48.2985" height="48.2985" rx="24.1492" fill="#1561FF"/>
<path d="M24.614 24.8455C29.0131 24.8441 32.5763 21.2765 32.5749 16.8789C32.5735 12.4798 29.006 8.91655 24.6083 8.91797C20.2107 8.91939 16.646 12.4869 16.6474 16.8846C16.6531 21.2808 20.2178 24.8426 24.614 24.8455ZM24.614 13.5867C26.4361 13.5867 27.9133 15.0639 27.9133 16.886C27.9133 18.7081 26.4361 20.1839 24.614 20.1839C22.7919 20.1839 21.3147 18.7066 21.3147 16.8846C21.3175 15.0639 22.7933 13.5881 24.614 13.5867ZM27.8338 31.3434C29.4729 30.9716 31.0367 30.323 32.46 29.4276C33.5441 28.728 33.8563 27.2834 33.1567 26.1993C32.4685 25.1321 31.0523 24.81 29.9709 25.4755C26.6915 27.5261 22.528 27.5261 19.2485 25.4755C18.1601 24.793 16.7226 25.1194 16.0372 26.2064C15.349 27.2948 15.6725 28.7365 16.7624 29.4248C16.7638 29.4248 16.7652 29.4262 16.7652 29.4262C18.1871 30.3202 19.7509 30.9687 21.3885 31.3419L16.9355 35.7949C16.0486 36.7315 16.0897 38.2102 17.0277 39.0971C17.9288 39.9485 19.3365 39.9485 20.2376 39.0971L24.6112 34.7207L28.9875 39.0971C29.8986 40.0067 31.373 40.0067 32.284 39.0971C33.1936 38.1861 33.1936 36.7116 32.284 35.8006L27.8338 31.3434Z" fill="white"/>
</svg>
