<svg width="84" height="86" viewBox="0 0 84 86" fill="none" xmlns="http://www.w3.org/2000/svg">
<path d="M19.3223 26.5377L19.3223 59.6292C19.3223 63.2146 22.1523 66.1211 25.6433 66.1211L57.864 66.1211C61.355 66.1211 64.1851 63.2146 64.1851 59.6292L64.1851 26.5377C64.1851 22.9523 61.355 20.0458 57.864 20.0458L25.6433 20.0458C22.1523 20.0458 19.3223 22.9523 19.3223 26.5377Z" stroke="black" stroke-width="6" stroke-linejoin="round"/>
<path d="M52.7562 43.0814C52.7562 36.8409 47.8304 31.7819 41.7541 31.7819C35.6778 31.7819 30.752 36.8409 30.752 43.0814C30.752 49.3219 35.6778 54.3809 41.7541 54.3809C47.8304 54.3809 52.7562 49.3219 52.7562 43.0814Z" stroke="black" stroke-width="6" stroke-linejoin="round"/>
<path d="M6.99662 65.8254L19.3221 58.5818L19.3221 27.5827L6.99662 20.3391C5.22517 19.299 3.01758 20.6121 3.01758 22.7076L3.01758 63.4538C3.01758 65.5493 5.22218 66.8654 6.99662 65.8223L6.99662 65.8254Z" stroke="black" stroke-width="6" stroke-linejoin="round"/>
<path d="M76.511 65.8254L64.1855 58.5818L64.1855 27.5827L76.511 20.3391C78.2825 19.299 80.4901 20.6121 80.4901 22.7076L80.4901 63.4538C80.4901 65.5492 78.2855 66.8654 76.511 65.8223L76.511 65.8254Z" stroke="black" stroke-width="6" stroke-linejoin="round"/>
<path d="M19.6085 7.38634L26.6614 20.0449L56.8448 20.0449L63.8977 7.38634C64.9104 5.56701 63.6319 3.29973 61.5916 3.29973L21.9176 3.29974C19.8773 3.29974 18.5958 5.56395 19.6115 7.38634L19.6085 7.38634Z" stroke="black" stroke-width="6" stroke-linejoin="round"/>
<path d="M19.6085 78.7786L26.6614 66.12L56.8448 66.12L63.8977 78.7786C64.9104 80.598 63.6319 82.8652 61.5916 82.8652L21.9176 82.8652C19.8773 82.8652 18.5958 80.601 19.6115 78.7786L19.6085 78.7786Z" stroke="black" stroke-width="6" stroke-linejoin="round"/>
</svg>
