<svg width="50" height="49" viewBox="0 0 50 49" fill="none" xmlns="http://www.w3.org/2000/svg">
<rect x="0.8125" y="0.199219" width="48.2985" height="48.2985" rx="24.1492" fill="#1561FF"/>
<path d="M31.6212 28.3062C32.9522 28.0929 33.9105 27.5873 34.4964 26.7887C35.0822 25.9902 35.3745 24.7121 35.3745 23.0087V21.6778C35.3745 20.6659 35.2682 19.8674 35.0816 19.2554C34.8951 18.6434 34.576 18.1104 34.1232 17.6315C33.6438 17.1788 33.112 16.8591 32.4727 16.6464C31.834 16.4599 31.0348 16.3535 30.0503 16.3535H14.0781V34.1093H18.5236V28.3329H27.0421L30.9285 34.1093H35.9063L31.6207 28.3062H31.6212ZM30.9296 23.0883C30.9296 23.6207 30.7965 23.9671 30.5838 24.153C30.3711 24.3396 29.9445 24.4192 29.3325 24.4192H18.5242V20.2666H29.3325C29.9445 20.2666 30.3705 20.373 30.5838 20.5596C30.7965 20.7461 30.9296 21.0919 30.9296 21.5976V23.0883Z" fill="white"/>
<path d="M38.1066 16.1898C39.8245 16.1898 41.2171 14.7971 41.2171 13.0793C41.2171 11.3614 39.8245 9.96875 38.1066 9.96875C36.3887 9.96875 34.9961 11.3614 34.9961 13.0793C34.9961 14.7971 36.3887 16.1898 38.1066 16.1898Z" fill="white"/>
</svg>
