<svg width="49" height="49" viewBox="0 0 49 49" fill="none" xmlns="http://www.w3.org/2000/svg">
<rect y="0.365234" width="48.2985" height="48.2985" rx="24.1492" fill="white"/>
<path d="M30.8087 28.4712C32.1397 28.2579 33.098 27.7523 33.6839 26.9538C34.2697 26.1552 34.562 24.8772 34.562 23.1737V21.8428C34.562 20.831 34.4557 20.0324 34.2691 19.4204C34.0826 18.8084 33.7635 18.2755 33.3107 17.7966C32.8313 17.3438 32.2995 17.0242 31.6602 16.8115C31.0215 16.6249 30.2223 16.5186 29.2378 16.5186H13.2656V34.2744H17.7111V28.498H26.2296L30.116 34.2744H35.0938L30.8082 28.4712H30.8087ZM30.1171 23.2533C30.1171 23.7857 29.984 24.1321 29.7713 24.3181C29.5586 24.5046 29.132 24.5843 28.52 24.5843H17.7117V20.4317H28.52C29.132 20.4317 29.558 20.538 29.7713 20.7246C29.984 20.9112 30.1171 21.257 30.1171 21.7626V23.2533Z" fill="#1561FF"/>
<path d="M37.2951 16.3558C39.013 16.3558 40.4056 14.9632 40.4056 13.2453C40.4056 11.5274 39.013 10.1348 37.2951 10.1348C35.5772 10.1348 34.1846 11.5274 34.1846 13.2453C34.1846 14.9632 35.5772 16.3558 37.2951 16.3558Z" fill="#1561FF"/>
</svg>
