<svg width="38" height="39" viewBox="0 0 38 39" fill="none" xmlns="http://www.w3.org/2000/svg">
<path fill-rule="evenodd" clip-rule="evenodd" d="M0.993637 5.75002C0.0126953 7.67523 0.0126953 10.1955 0.0126953 15.2359V23.8578C0.0126953 28.8983 0.0126953 31.4185 0.993637 33.3437C1.8565 35.0372 3.23332 36.414 4.92678 37.2769C6.85199 38.2578 9.37222 38.2578 14.4127 38.2578H23.0346C28.075 38.2578 30.5953 38.2578 32.5205 37.2769C34.2139 36.414 35.5908 35.0372 36.4536 33.3437C37.4346 31.4185 37.4346 28.8983 37.4346 23.8578V15.2359C37.4346 10.1955 37.4346 7.67523 36.4536 5.75002C35.5908 4.05656 34.2139 2.67974 32.5205 1.81688C30.5953 0.835938 28.075 0.835938 23.0346 0.835938H14.4127C9.37222 0.835938 6.85199 0.835938 4.92678 1.81688C3.23332 2.67974 1.8565 4.05656 0.993637 5.75002ZM29.266 12.806C28.9441 16.1966 27.5492 24.4372 26.8411 28.2356C26.5406 29.8451 25.9397 30.3816 25.3818 30.446C24.3869 30.5317 23.5839 29.9593 22.6879 29.3206L22.6878 29.3205C22.463 29.1602 22.2322 28.9958 21.9911 28.8365C21.0415 28.2106 20.2981 27.7041 19.5617 27.2024C18.8337 26.7063 18.1124 26.215 17.2056 25.6175C15.3676 24.4107 16.1477 23.6697 17.1837 22.6858C17.3451 22.5325 17.5128 22.3732 17.6777 22.2054C17.7439 22.1392 18.0291 21.8749 18.4412 21.493L18.4416 21.4926C20.0328 20.018 23.5154 16.7906 23.6006 16.4327C23.6155 16.3644 23.6135 16.2936 23.5948 16.2263C23.5761 16.159 23.5413 16.0972 23.4933 16.0464C23.379 15.9512 23.2308 15.9743 23.0939 15.9957C23.0766 15.9984 23.0595 16.0011 23.0427 16.0035C22.8495 16.0464 19.8452 18.0422 13.9866 21.9908C13.1282 22.5702 12.3557 22.8706 11.669 22.8492C10.8964 22.8277 9.43715 22.42 8.3427 22.0552C8.20286 22.0108 8.06624 21.9685 7.93376 21.9274C6.78538 21.5716 5.94808 21.3122 6.02504 20.6388C6.06796 20.2526 6.60445 19.8663 7.61307 19.4585C13.8793 16.7331 18.0425 14.9305 20.1241 14.0721C26.09 11.5828 27.3132 11.1536 28.1286 11.1536C28.3003 11.1536 28.7081 11.1965 28.9656 11.4111C29.1802 11.5828 29.2445 11.8188 29.266 11.9905C29.2558 12.0515 29.2601 12.1702 29.2652 12.3101V12.3102C29.2708 12.4658 29.2773 12.6478 29.266 12.806Z" fill="white"/>
</svg>
