<svg width="38" height="39" viewBox="0 0 38 39" fill="none" xmlns="http://www.w3.org/2000/svg">
<path fill-rule="evenodd" clip-rule="evenodd" d="M1.34715 5.75002C0.366211 7.67523 0.366211 10.1955 0.366211 15.2359V23.8578C0.366211 28.8983 0.366211 31.4185 1.34715 33.3437C2.21001 35.0372 3.58684 36.414 5.2803 37.2769C7.2055 38.2578 9.72574 38.2578 14.7662 38.2578H23.3881C28.4286 38.2578 30.9488 38.2578 32.874 37.2769C34.5675 36.414 35.9443 35.0372 36.8071 33.3437C37.7881 31.4185 37.7881 28.8983 37.7881 23.8578V15.2359C37.7881 10.1955 37.7881 7.67523 36.8071 5.75002C35.9443 4.05656 34.5675 2.67974 32.874 1.81688C30.9488 0.835938 28.4286 0.835938 23.3881 0.835938H14.7662C9.72574 0.835938 7.2055 0.835938 5.2803 1.81688C3.58684 2.67974 2.21001 4.05656 1.34715 5.75002ZM19.2927 30.7493C25.6965 30.7493 30.8877 25.5973 30.8877 19.2434C30.8877 12.8883 25.6977 7.73633 19.2927 7.73633C12.8877 7.73633 7.69653 12.8883 7.69534 19.2422C7.69534 21.4156 8.30342 23.4501 9.35923 25.184L7.2666 31.3574L13.687 29.3182C15.3485 30.2303 17.2595 30.7493 19.2927 30.7493ZM9.54332 19.2434C9.54332 13.9073 13.9162 9.56887 19.2927 9.56887C24.6668 9.56887 29.0409 13.9109 29.0409 19.2446C29.0409 24.5783 24.668 28.918 19.2927 28.918C17.3117 28.918 15.4673 28.3277 13.9281 27.3182L10.1823 28.5083L11.3996 24.9156C10.2322 23.3194 9.54332 21.3586 9.54332 19.2434ZM24.7536 21.6371C24.9542 21.7329 25.09 21.7978 25.1478 21.8931H25.1454C25.2167 22.0106 25.2167 22.5748 24.9792 23.2339C24.7428 23.8931 23.5813 24.5285 23.0611 24.5748C22.9717 24.5829 22.8977 24.6008 22.8218 24.6191C22.4548 24.7075 22.0444 24.8064 19.6502 23.8705C16.9785 22.8266 15.2188 20.2356 14.855 19.6999C14.8251 19.656 14.8047 19.6259 14.7939 19.6116L14.7911 19.6079C14.6396 19.4068 13.6348 18.073 13.6348 16.6947C13.6348 15.3952 14.2789 14.7138 14.5741 14.4015C14.5941 14.3804 14.6124 14.361 14.6288 14.3432C14.8889 14.0605 15.459 13.9905 15.459 13.9905C15.459 13.9905 15.7654 13.9418 15.9317 13.9418C15.9374 13.9418 15.9433 13.9418 15.9492 13.9417C16.1144 13.941 16.3436 13.94 16.5706 14.4845C16.6528 14.6801 16.7746 14.9739 16.9016 15.2805C17.142 15.8604 17.4013 16.4859 17.4471 16.5784C17.5184 16.7185 17.5659 16.8824 17.4709 17.0712C17.457 17.099 17.4441 17.1252 17.4318 17.1504C17.3609 17.295 17.3084 17.4021 17.187 17.5427C17.1412 17.5958 17.0938 17.6529 17.0462 17.7102C16.9471 17.8296 16.8473 17.9497 16.7606 18.0356C16.6193 18.1757 16.4709 18.3289 16.6359 18.6104C16.8034 18.8931 17.3735 19.8159 18.2179 20.5641C19.1302 21.3706 19.9225 21.7107 20.3213 21.8819C20.3971 21.9144 20.4586 21.9408 20.5041 21.9631C20.7891 22.1045 20.9542 22.0819 21.1193 21.8931C21.2868 21.7054 21.8307 21.07 22.0207 20.7874C22.2084 20.5059 22.3996 20.5534 22.6597 20.6472C22.9198 20.7399 24.3188 21.4228 24.6027 21.5641C24.6564 21.5906 24.7068 21.6147 24.7536 21.6371Z" fill="white"/>
</svg>
