<svg width="49" height="49" viewBox="0 0 49 49" fill="none" xmlns="http://www.w3.org/2000/svg">
<rect x="0.488281" y="0.199219" width="48.2985" height="48.2985" rx="24.1492" fill="#1561FF"/>
<path d="M25.3037 34.085L19.1418 33.979C17.1467 33.9422 15.1467 34.0159 13.1908 33.6336C10.2152 33.0624 10.0044 30.2618 9.78385 27.9127C9.47993 24.61 9.59758 21.2475 10.1711 17.9725C10.4946 16.1346 11.7692 15.0383 13.7398 14.9186C20.3919 14.4856 27.0881 14.5363 33.7254 14.7389C34.4264 14.7574 35.1323 14.8587 35.8235 14.9739C39.2353 15.5358 39.3187 18.7095 39.5392 21.3811C39.7598 24.0803 39.6667 26.7934 39.2451 29.4742C38.9069 31.6944 38.2598 33.5553 35.5294 33.7349C32.1077 33.9698 28.7646 34.1587 25.3331 34.0988C25.3331 34.085 25.3135 34.085 25.3037 34.085ZM21.6811 28.4654C24.2596 27.0743 26.789 25.7063 29.3528 24.3244C26.7694 22.9334 24.2449 21.5653 21.6811 20.1835V28.4654Z" fill="white"/>
</svg>
