<svg width="49" height="49" viewBox="0 0 49 49" fill="none" xmlns="http://www.w3.org/2000/svg">
<rect x="0.678223" y="0.365234" width="48.2985" height="48.2985" rx="24.1492" fill="white"/>
<path d="M25.4932 34.25L19.3313 34.1441C17.3362 34.1072 15.3361 34.1809 13.3802 33.7986C10.4047 33.2274 10.1939 30.4269 9.97331 28.0777C9.66938 24.7751 9.78703 21.4125 10.3606 18.1375C10.6841 16.2997 11.9586 15.2034 13.9293 15.0836C20.5813 14.6506 27.2775 14.7013 33.9149 14.904C34.6159 14.9224 35.3218 15.0237 36.0129 15.1389C39.4248 15.7009 39.5081 18.8745 39.7287 21.5461C39.9493 24.2453 39.8561 26.9584 39.4346 29.6392C39.0963 31.8594 38.4493 33.7203 35.7188 33.8999C32.2972 34.1349 28.954 34.3237 25.5226 34.2638C25.5226 34.25 25.503 34.25 25.4932 34.25ZM21.8706 28.6304C24.449 27.2394 26.9785 25.8713 29.5423 24.4895C26.9589 23.0984 24.4343 21.7304 21.8706 20.3485V28.6304Z" fill="#1561FF"/>
</svg>
